<svg width="24" height="23" viewBox="0 0 24 23" fill="none" xmlns="http://www.w3.org/2000/svg">
<path d="M3.36005 8.65791C2.96241 8.9369 2.88182 9.46463 3.18005 9.83662C3.47828 10.2086 4.0424 10.284 4.44004 10.005L3.36005 8.65791ZM12 3.6484L12.54 2.97485C12.22 2.75033 11.78 2.75033 11.46 2.97485L12 3.6484ZM19.56 10.005C19.9576 10.284 20.5217 10.2086 20.8199 9.83662C21.1182 9.46463 21.0376 8.9369 20.6399 8.65791L19.56 10.005ZM4.44004 10.005L12.54 4.32194L11.46 2.97485L3.36005 8.65791L4.44004 10.005ZM11.46 4.32194L19.56 10.005L20.6399 8.65791L12.54 2.97485L11.46 4.32194Z" fill="#005103"/>
<path d="M20.9999 9.33147C20.9999 8.86648 20.597 8.48953 20.0999 8.48953C19.6028 8.48953 19.1999 8.86648 19.1999 9.33147H20.9999ZM20.0999 18.8032V19.6452C20.597 19.6452 20.9999 19.2682 20.9999 18.8032H20.0999ZM3.89999 18.8032H3C3 19.2682 3.40294 19.6452 3.89999 19.6452V18.8032ZM4.79999 9.33147C4.79999 8.86648 4.39705 8.48953 3.89999 8.48953C3.40294 8.48953 3 8.86648 3 9.33147H4.79999ZM19.1999 9.33147V18.8032H20.9999V9.33147H19.1999ZM20.0999 17.9613H3.89999V19.6452H20.0999V17.9613ZM4.79999 18.8032V9.33147H3V18.8032H4.79999Z" fill="#005103"/>
<path d="M9.97495 13.1202V12.2782C9.47789 12.2782 9.07495 12.6552 9.07495 13.1202H9.97495ZM14.0249 13.1202H14.9249C14.9249 12.6552 14.522 12.2782 14.0249 12.2782V13.1202ZM14.0249 18.8032V19.6452C14.522 19.6452 14.9249 19.2682 14.9249 18.8032H14.0249ZM9.97495 18.8032H9.07495C9.07495 19.2682 9.47789 19.6452 9.97495 19.6452V18.8032ZM9.97495 13.9621H14.0249V12.2782H9.97495V13.9621ZM13.1249 13.1202V18.8032H14.9249V13.1202H13.1249ZM14.0249 17.9613H9.97495V19.6452H14.0249V17.9613ZM10.8749 18.8032V13.1202H9.07495V18.8032H10.8749Z" fill="#005103"/>
</svg>
