<svg width="24" height="23" viewBox="0 0 24 23" fill="none" xmlns="http://www.w3.org/2000/svg">
<path fill-rule="evenodd" clip-rule="evenodd" d="M12 3.74246C10.3971 3.74246 9.09766 4.95806 9.09766 6.45759C9.09766 7.95711 10.3971 9.17272 12 9.17272C13.603 9.17272 14.9024 7.95711 14.9024 6.45759C14.9024 4.95806 13.603 3.74246 12 3.74246ZM7.09766 6.45759C7.09766 3.92476 9.29253 1.87149 12 1.87149C14.7075 1.87149 16.9024 3.92476 16.9024 6.45759C16.9024 8.99042 14.7075 11.0437 12 11.0437C9.29253 11.0437 7.09766 8.99042 7.09766 6.45759Z" fill="#9098B1"/>
<path fill-rule="evenodd" clip-rule="evenodd" d="M9.51784 14.3975C6.47035 14.3975 4 16.7085 4 19.5594V19.6446C4 20.1613 3.55228 20.5801 3 20.5801C2.44771 20.5801 2 20.1613 2 19.6446V19.5594C2 15.6752 5.36578 12.5266 9.51784 12.5266H14.4822C18.6342 12.5266 22 15.6752 22 19.5594V19.6446C22 20.1613 21.5523 20.5801 21 20.5801C20.4477 20.5801 20 20.1613 20 19.6446V19.5594C20 16.7085 17.5296 14.3975 14.4822 14.3975H9.51784Z" fill="#9098B1"/>
</svg>
