<svg width="29" height="20" viewBox="0 0 29 20" fill="none" xmlns="http://www.w3.org/2000/svg">
<path d="M22.2654 8.0554L19.7199 1.06331C19.4943 0.418881 18.8821 0 18.2054 0H14.5V1.61108H18.2054L20.5576 8.0554H12.4861L11.89 6.44432H14.5V4.83324H8.05563V6.44432H10.1823L12.5344 12.8886H11.1972C10.7945 9.97259 8.26507 7.82985 5.15568 8.07152C2.51351 8.28096 0.30633 10.4237 0.0324463 13.0659C-0.321992 16.5136 2.27185 19.333 5.63901 19.333C8.52284 19.333 10.8106 17.2547 11.1972 14.4997H17.8027C18.2054 17.4158 20.7509 19.5585 23.8442 19.3169C26.4864 19.1074 28.6936 16.9647 28.9675 14.3225C29.3219 10.8748 26.7281 8.0554 23.3609 8.0554H22.2654ZM13.0661 9.66649H19.3815C18.5277 10.5042 17.9638 11.632 17.8027 12.8886H14.2422L13.0661 9.66649ZM5.63901 17.7219C3.38349 17.7219 1.61131 15.9497 1.61131 13.6942C1.61131 11.4387 3.38349 9.66649 5.63901 9.66649C7.62064 9.66649 9.23172 11.0359 9.58616 12.8886H4.83347V14.4997H9.58616C9.23172 16.3525 7.62064 17.7219 5.63901 17.7219ZM23.3609 17.7219C21.1054 17.7219 19.3332 15.9497 19.3332 13.6942C19.3332 12.1798 20.1387 10.907 21.3309 10.2143L22.9904 14.7736L24.5048 14.2258L22.8615 9.71482C23.0387 9.69871 23.1998 9.66649 23.3609 9.66649C25.6164 9.66649 27.3886 11.4387 27.3886 13.6942C27.3886 15.9497 25.6164 17.7219 23.3609 17.7219Z" fill="black"/>
</svg>
