<svg width="25" height="27" viewBox="0 0 25 27" fill="none" xmlns="http://www.w3.org/2000/svg">
<path d="M4.04327 12.4875C3.52792 12.4875 3.11015 12.9408 3.11015 13.5C3.11015 14.0592 3.52792 14.5125 4.04327 14.5125V12.4875ZM9.29205 14.5125C9.80739 14.5125 10.2252 14.0592 10.2252 13.5C10.2252 12.9408 9.80739 12.4875 9.29205 12.4875V14.5125ZM4.04327 14.5125H9.29205V12.4875H4.04327V14.5125Z" fill="#9098B1"/>
<path d="M18.6232 4.38752C18.6232 3.82833 18.2055 3.37502 17.6901 3.37502C17.1748 3.37502 16.757 3.82833 16.757 4.38752H18.6232ZM17.6901 22.6125H16.757C16.757 23.022 16.9843 23.3912 17.333 23.5479C17.6817 23.7046 18.083 23.618 18.3499 23.3284L17.6901 22.6125ZM21.4992 19.9112C21.8636 19.5158 21.8636 18.8747 21.4992 18.4794C21.1348 18.084 20.544 18.084 20.1796 18.4794L21.4992 19.9112ZM16.757 4.38752V22.6125H18.6232V4.38752H16.757ZM18.3499 23.3284L21.4992 19.9112L20.1796 18.4794L17.0303 21.8965L18.3499 23.3284Z" fill="#9098B1"/>
<path d="M4.04327 5.4C3.52792 5.4 3.11015 5.85331 3.11015 6.4125C3.11015 6.97168 3.52792 7.42499 4.04327 7.42499V5.4ZM13.4911 7.42499C14.0064 7.42499 14.4242 6.97168 14.4242 6.4125C14.4242 5.85331 14.0064 5.4 13.4911 5.4V7.42499ZM4.04327 7.42499H13.4911V5.4H4.04327V7.42499Z" fill="#9098B1"/>
<path d="M4.04327 19.575C3.52792 19.575 3.11015 20.0283 3.11015 20.5875C3.11015 21.1466 3.52792 21.6 4.04327 21.6V19.575ZM7.19253 21.6C7.70788 21.6 8.12565 21.1466 8.12565 20.5875C8.12565 20.0283 7.70788 19.575 7.19253 19.575V21.6ZM4.04327 21.6H7.19253V19.575H4.04327V21.6Z" fill="#9098B1"/>
<path d="M17.0302 23.3284C17.3946 23.7238 17.9854 23.7238 18.3498 23.3284C18.7142 22.933 18.7142 22.2919 18.3498 21.8965L17.0302 23.3284ZM15.2005 18.4793C14.8361 18.0839 14.2453 18.0839 13.8809 18.4793C13.5165 18.8747 13.5165 19.5158 13.8809 19.9112L15.2005 18.4793ZM18.3498 21.8965L15.2005 18.4793L13.8809 19.9112L17.0302 23.3284L18.3498 21.8965Z" fill="#9098B1"/>
</svg>
