<svg width="24" height="20" viewBox="0 0 24 20" fill="none" xmlns="http://www.w3.org/2000/svg">
<path d="M8.56875 16.7097C8.84834 16.7097 9.075 16.5093 9.075 16.2621C9.075 16.0149 8.84834 15.8145 8.56875 15.8145C8.28916 15.8145 8.0625 16.0149 8.0625 16.2621C8.0625 16.5093 8.28916 16.7097 8.56875 16.7097Z" fill="#9098B1" stroke="#9098B1" stroke-width="2" stroke-linecap="round" stroke-linejoin="round"/>
<path d="M15.6562 16.7097C15.9357 16.7097 16.1624 16.5093 16.1624 16.2621C16.1624 16.0149 15.9357 15.8145 15.6562 15.8145C15.3766 15.8145 15.1499 16.0149 15.1499 16.2621C15.1499 16.5093 15.3766 16.7097 15.6562 16.7097Z" fill="#9098B1" stroke="#9098B1" stroke-width="2" stroke-linecap="round" stroke-linejoin="round"/>
<path d="M3.9 2.3871C3.40294 2.3871 3 2.74335 3 3.1828C3 3.62225 3.40294 3.9785 3.9 3.9785V2.3871ZM5.925 3.1828L6.81275 3.05199C6.74042 2.66831 6.36495 2.3871 5.925 2.3871V3.1828ZM7.95 13.9247L7.06225 14.0555C7.13457 14.4392 7.51004 14.7204 7.95 14.7204V13.9247ZM18.075 13.9247V14.7204C18.4968 14.7204 18.862 14.4614 18.9536 14.0973L18.075 13.9247ZM20.1 5.86828L20.9786 6.04089C21.0378 5.80529 20.9728 5.55865 20.802 5.37039C20.6312 5.18213 20.373 5.07258 20.1 5.07258V5.86828ZM6.9375 5.07258C6.44045 5.07258 6.0375 5.42883 6.0375 5.86828C6.0375 6.30773 6.44045 6.66398 6.9375 6.66398V5.07258ZM3.9 3.9785H5.925V2.3871H3.9V3.9785ZM5.03725 3.31361L7.06225 14.0555L8.83775 13.7939L6.81275 3.05199L5.03725 3.31361ZM7.95 14.7204H18.075V13.129H7.95V14.7204ZM18.9536 14.0973L20.9786 6.04089L19.2214 5.69567L17.1964 13.7521L18.9536 14.0973ZM20.1 5.07258H6.9375V6.66398H20.1V5.07258Z" fill="#9098B1"/>
</svg>
