<svg width="34" height="20" viewBox="0 0 34 20" fill="none" xmlns="http://www.w3.org/2000/svg">
<path d="M32.8356 0.47619H33.321V0H32.8356V0.47619ZM32.8356 19.5238V20H33.321V19.5238H32.8356ZM5.33974 0.952381H32.8356V0H5.33974V0.952381ZM32.3502 0.47619V19.5238H33.321V0.47619H32.3502ZM32.8356 19.0476H5.33974V20H32.8356V19.0476ZM0.970862 14.7619V5.2381H0V14.7619H0.970862ZM5.33974 19.0476C2.92688 19.0476 0.970862 17.1289 0.970862 14.7619H0C0 17.6549 2.39069 20 5.33974 20V19.0476ZM5.33974 0C2.39068 0 0 2.34517 0 5.2381H0.970862C0.970862 2.87116 2.92688 0.952381 5.33974 0.952381V0Z" fill="#EBF0FF"/>
<path d="M12.4283 9.5238C11.8921 9.5238 11.4574 9.9502 11.4574 10.4762C11.4574 11.0022 11.8921 11.4286 12.4283 11.4286V9.5238ZM21.8637 11.4286C22.3999 11.4286 22.8346 11.0022 22.8346 10.4762C22.8346 9.9502 22.3999 9.5238 21.8637 9.5238V11.4286ZM12.4283 11.4286H21.8637V9.5238H12.4283V11.4286Z" fill="#9098B1"/>
</svg>
