<svg width="24" height="23" viewBox="0 0 24 23" fill="none" xmlns="http://www.w3.org/2000/svg">
<path d="M8.56875 19.6452C8.84834 19.6452 9.075 19.4096 9.075 19.119C9.075 18.8283 8.84834 18.5927 8.56875 18.5927C8.28916 18.5927 8.0625 18.8283 8.0625 19.119C8.0625 19.4096 8.28916 19.6452 8.56875 19.6452Z" fill="#9098B1" stroke="#9098B1" stroke-width="2" stroke-linecap="round" stroke-linejoin="round"/>
<path d="M15.6562 19.6452C15.9357 19.6452 16.1624 19.4096 16.1624 19.119C16.1624 18.8283 15.9357 18.5927 15.6562 18.5927C15.3766 18.5927 15.1499 18.8283 15.1499 19.119C15.1499 19.4096 15.3766 19.6452 15.6562 19.6452Z" fill="#9098B1" stroke="#9098B1" stroke-width="2" stroke-linecap="round" stroke-linejoin="round"/>
<path d="M3.9 2.80646C3.40294 2.80646 3 3.22529 3 3.74194C3 4.2586 3.40294 4.67743 3.9 4.67743V2.80646ZM5.925 3.74194L6.81275 3.58815C6.74042 3.13707 6.36495 2.80646 5.925 2.80646V3.74194ZM7.95 16.371L7.06225 16.5248C7.13457 16.9759 7.51004 17.3065 7.95 17.3065V16.371ZM18.075 16.371V17.3065C18.4968 17.3065 18.862 17.002 18.9536 16.5739L18.075 16.371ZM20.1 6.8992L20.9786 7.10213C21.0378 6.82514 20.9728 6.53517 20.802 6.31384C20.6312 6.0925 20.373 5.96372 20.1 5.96372V6.8992ZM6.9375 5.96372C6.44045 5.96372 6.0375 6.38255 6.0375 6.8992C6.0375 7.41585 6.44045 7.83468 6.9375 7.83468V5.96372ZM3.9 4.67743H5.925V2.80646H3.9V4.67743ZM5.03725 3.89573L7.06225 16.5248L8.83775 16.2172L6.81275 3.58815L5.03725 3.89573ZM7.95 17.3065H18.075V15.4355H7.95V17.3065ZM18.9536 16.5739L20.9786 7.10213L19.2214 6.69626L17.1964 16.1681L18.9536 16.5739ZM20.1 5.96372H6.9375V7.83468H20.1V5.96372Z" fill="#9098B1"/>
</svg>
