<svg width="34" height="32" viewBox="0 0 34 32" fill="none" xmlns="http://www.w3.org/2000/svg">
<path d="M26.3984 9.33331H25.2591L22.8971 3.09331C22.4942 2.03998 21.4522 1.33331 20.2851 1.33331H18.0621C17.2979 1.33331 16.6727 1.93331 16.6727 2.66665C16.6727 3.39998 17.2979 3.99998 18.0621 3.99998H20.2851L22.3136 9.33331H15.6306L15.1305 7.99998H15.2555C16.0197 7.99998 16.6449 7.39998 16.6449 6.66665C16.6449 5.93331 16.0197 5.33331 15.2555 5.33331H11.1151C10.351 5.33331 9.72573 5.93331 9.72573 6.66665C9.72573 7.39998 10.351 7.99998 11.1151 7.99998H12.1572L14.6858 14.6666H13.755C13.1436 11.6933 10.5455 9.49331 7.29429 9.34665C3.404 9.15998 0 12.2666 0 16C0 19.7333 3.05666 22.6666 6.94695 22.6666C10.3648 22.6666 13.1297 20.4133 13.755 17.3333H19.5904C20.2017 20.3066 22.7999 22.5066 26.0511 22.6533C29.9413 22.8266 33.3453 19.7333 33.3453 15.9866C33.3453 12.2666 30.2887 9.33331 26.3984 9.33331ZM8.33634 17.3333H10.865C10.2815 18.9733 8.642 20.1066 6.66907 19.9866C4.59888 19.8666 2.87604 18.1866 2.77878 16.1866C2.68152 13.8533 4.5433 12 6.94695 12C8.79484 12 10.3093 13.1066 10.865 14.6666H8.33634C7.57217 14.6666 6.94695 15.2666 6.94695 16C6.94695 16.7333 7.57217 17.3333 8.33634 17.3333ZM19.5904 14.6666H17.6452L16.631 12H20.8408C20.2295 12.7733 19.7849 13.6666 19.5904 14.6666ZM26.2317 20C24.092 19.92 22.2858 18.1733 22.2302 16.1066C22.2024 14.8266 22.7721 13.7066 23.6891 12.96L24.5505 15.2266C24.8145 15.92 25.6064 16.28 26.3289 16.0266C27.0514 15.7733 27.4265 15.0133 27.1626 14.32L26.2873 12.0133C26.2873 12.0133 26.2873 12.0133 26.3011 12C28.677 11.9466 30.5666 13.72 30.5666 16C30.5666 18.2933 28.6492 20.08 26.2317 20Z" fill="black"/>
<path d="M15.2833 26.6667H9.72571L18.062 30.6667V28H23.6196L15.2833 24V26.6667Z" fill="black"/>
</svg>
