<svg width="24" height="24" viewBox="0 0 24 24" fill="none" xmlns="http://www.w3.org/2000/svg">
<path d="M3.9 6.03748C3.40294 6.03748 3 6.44042 3 6.93748C3 7.43453 3.40294 7.83748 3.9 7.83748V6.03748ZM20.1 7.83748C20.5971 7.83748 21 7.43453 21 6.93748C21 6.44042 20.5971 6.03748 20.1 6.03748V7.83748ZM3.9 7.83748H20.1V6.03748H3.9V7.83748Z" fill="#9098B1"/>
<path d="M8.9625 3C8.46544 3 8.0625 3.40294 8.0625 3.9C8.0625 4.39706 8.46544 4.8 8.9625 4.8V3ZM15.0375 4.8C15.5346 4.8 15.9375 4.39706 15.9375 3.9C15.9375 3.40294 15.5346 3 15.0375 3V4.8ZM8.9625 4.8H15.0375V3H8.9625V4.8Z" fill="#9098B1"/>
<path d="M5.92499 6.93748V6.03748C5.42794 6.03748 5.02499 6.44042 5.02499 6.93748H5.92499ZM18.075 6.93748H18.975C18.975 6.44042 18.5721 6.03748 18.075 6.03748V6.93748ZM18.075 20.1V21C18.5721 21 18.975 20.597 18.975 20.1H18.075ZM5.92499 20.1H5.02499C5.02499 20.597 5.42794 21 5.92499 21V20.1ZM5.92499 7.83748H18.075V6.03748H5.92499V7.83748ZM17.175 6.93748V20.1H18.975V6.93748H17.175ZM18.075 19.2H5.92499V21H18.075V19.2ZM6.82499 20.1V6.93748H5.02499V20.1H6.82499Z" fill="#9098B1"/>
</svg>
