<svg width="34" height="20" viewBox="0 0 34 20" fill="none" xmlns="http://www.w3.org/2000/svg">
<path d="M0.485431 0.47619V0H0V0.47619H0.485431ZM0.485431 19.5238H0V20H0.485431V19.5238ZM0.485431 0.952381H27.9813V0H0.485431V0.952381ZM32.3502 5.2381V14.7619H33.321V5.2381H32.3502ZM27.9813 19.0476H0.485431V20H27.9813V19.0476ZM0.970862 19.5238V0.47619H0V19.5238H0.970862ZM32.3502 14.7619C32.3502 17.1289 30.3942 19.0476 27.9813 19.0476V20C30.9304 20 33.321 17.6549 33.321 14.7619H32.3502ZM27.9813 0.952381C30.3942 0.952381 32.3502 2.87116 32.3502 5.2381H33.321C33.321 2.34517 30.9304 0 27.9813 0V0.952381Z" fill="#EBF0FF"/>
<path d="M16.9802 6.57764C16.9802 6.15925 16.6197 5.82007 16.175 5.82007C15.7304 5.82007 15.3699 6.15925 15.3699 6.57764H16.9802ZM15.3699 12.4699C15.3699 12.8883 15.7304 13.2275 16.175 13.2275C16.6197 13.2275 16.9802 12.8883 16.9802 12.4699H15.3699ZM15.3699 6.57764V12.4699H16.9802V6.57764H15.3699Z" fill="#9098B1"/>
<path d="M12.2626 8.76624C11.8179 8.76624 11.4574 9.10541 11.4574 9.52381C11.4574 9.94221 11.8179 10.2814 12.2626 10.2814V8.76624ZM20.0876 10.2814C20.5323 10.2814 20.8928 9.94221 20.8928 9.52381C20.8928 9.10541 20.5323 8.76624 20.0876 8.76624V10.2814ZM12.2626 10.2814H20.0876V8.76624H12.2626V10.2814Z" fill="#9098B1"/>
</svg>
