<svg width="24" height="20" viewBox="0 0 24 20" fill="none" xmlns="http://www.w3.org/2000/svg">
<path d="M17.175 8.74275C17.175 11.4619 14.4048 13.6661 10.9875 13.6661V15.0984C15.3989 15.0984 18.975 12.2529 18.975 8.74275H17.175ZM10.9875 13.6661C7.57024 13.6661 4.8 11.4619 4.8 8.74275H3C3 12.2529 6.57612 15.0984 10.9875 15.0984V13.6661ZM4.8 8.74275C4.8 6.02363 7.57024 3.81936 10.9875 3.81936V2.3871C6.57612 2.3871 3 5.23262 3 8.74275H4.8ZM10.9875 3.81936C14.4048 3.81936 17.175 6.02363 17.175 8.74275H18.975C18.975 5.23262 15.3989 2.3871 10.9875 2.3871V3.81936Z" fill="#005103"/>
<path d="M16.6863 12.2646C16.3348 11.9849 15.765 11.9849 15.4135 12.2646C15.062 12.5443 15.062 12.9977 15.4135 13.2773L16.6863 12.2646ZM19.4635 16.4999C19.815 16.7796 20.3848 16.7796 20.7363 16.4999C21.0878 16.2203 21.0878 15.7668 20.7363 15.4872L19.4635 16.4999ZM15.4135 13.2773L19.4635 16.4999L20.7363 15.4872L16.6863 12.2646L15.4135 13.2773Z" fill="#005103"/>
</svg>
