<svg width="16" height="16" viewBox="0 0 16 16" fill="none" xmlns="http://www.w3.org/2000/svg">
<path d="M3.93081 12.2754C3.26134 13.1274 3.26134 14.5089 3.93081 15.3609C4.60028 16.213 5.68571 16.213 6.35518 15.3609L3.93081 12.2754ZM15.498 3.72459C16.1675 2.87254 16.1675 1.49109 15.498 0.639038C14.8285 -0.213013 13.7432 -0.213013 13.0737 0.639038L15.498 3.72459ZM6.35518 15.3609L15.498 3.72459L13.0737 0.639038L3.93081 12.2754L6.35518 15.3609Z" fill="white"/>
<path d="M2.92632 0.639038C2.25683 -0.213013 1.17146 -0.213013 0.501975 0.639038C-0.16751 1.49109 -0.16751 2.87254 0.501975 3.72459L2.92632 0.639038ZM9.64482 15.3609C10.3143 16.213 11.3997 16.213 12.0692 15.3609C12.7387 14.5089 12.7387 13.1275 12.0692 12.2754L9.64482 15.3609ZM0.501975 3.72459L9.64482 15.3609L12.0692 12.2754L2.92632 0.639038L0.501975 3.72459Z" fill="white"/>
</svg>
