<svg width="24" height="24" viewBox="0 0 24 24" fill="none" xmlns="http://www.w3.org/2000/svg">
<path d="M5.5448 13.7754L6.24383 13.0603L6.24382 13.0603L5.5448 13.7754ZM13 21.063L12.301 21.7781C12.6896 22.158 13.3104 22.158 13.699 21.7781L13 21.063ZM20.4552 13.7754L21.1542 14.4905L20.4552 13.7754ZM13.0403 6.44831L13.7393 7.16341L13.7394 7.16324L13.0403 6.44831ZM13 6.48766L12.301 7.20275C12.6896 7.58263 13.3104 7.58263 13.699 7.20276L13 6.48766ZM12.9588 6.44737L13.6578 5.73229V5.73228L12.9588 6.44737ZM5.50359 13.7351L6.20261 13.02L6.20245 13.0198L5.50359 13.7351ZM4.84578 14.4905L12.301 21.7781L13.699 20.3479L6.24383 13.0603L4.84578 14.4905ZM13.699 21.7781L21.1542 14.4905L19.7562 13.0603L12.301 20.3479L13.699 21.7781ZM21.1542 14.4905L21.1945 14.4511L19.7964 13.0209L19.7562 13.0603L21.1542 14.4905ZM21.1945 14.4511C23.6565 12.0444 23.6567 8.13899 21.1943 5.73306L19.7966 7.16357C21.4558 8.7847 21.456 11.3986 19.7964 13.0209L21.1945 14.4511ZM21.1943 5.73306C18.7453 3.34015 14.7898 3.33853 12.3411 5.73338L13.7394 7.16324C15.4103 5.52916 18.1241 5.52941 19.7966 7.16357L21.1943 5.73306ZM12.3412 5.73321L12.301 5.77257L13.699 7.20276L13.7393 7.16341L12.3412 5.73321ZM13.699 5.77258L13.6578 5.73229L12.2597 7.16246L12.301 7.20275L13.699 5.77258ZM13.6578 5.73228C11.2085 3.33802 7.25294 3.33779 4.8044 5.73245L6.20278 7.1623C7.87386 5.52802 10.5875 5.52779 12.2598 7.16247L13.6578 5.73228ZM4.8044 5.73245C2.34382 8.13885 2.34213 12.0442 4.80473 14.4503L6.20245 13.0198C4.54351 11.3989 4.54374 8.78483 6.20278 7.1623L4.8044 5.73245ZM4.80457 14.4502L4.84578 14.4905L6.24382 13.0603L6.20261 13.02L4.80457 14.4502Z" fill="#9098B1"/>
</svg>
