<?xml version="1.0" standalone="no"?>
<!DOCTYPE svg PUBLIC "-//W3C//DTD SVG 20010904//EN" "http://www.w3.org/TR/2001/REC-SVG-20010904/DTD/svg10.dtd">
<svg version="1.0" xmlns="http://www.w3.org/2000/svg" width="3750.000000pt" height="3750.000000pt"
    viewBox="0 0 3750.000000 3750.000000" preserveAspectRatio="xMidYMid meet">

    <g transform="translate(0.000000,3750.000000) scale(0.100000,-0.100000)" fill="#000000" stroke="none">
        <path d="M29364 29143 c-9 -10 -67 -92 -130 -183 -281 -411 -298 -435 -318
-438 -10 -2 -45 15 -79 39 -34 23 -186 126 -337 228 -301 203 -308 206 -395
169 -22 -9 -80 -31 -130 -48 -121 -44 -595 -229 -680 -266 -16 -7 -75 -31
-130 -54 -55 -23 -149 -65 -210 -92 -60 -27 -135 -61 -165 -75 -376 -170 -754
-398 -855 -516 -102 -119 -85 -187 67 -277 168 -100 304 -162 1358 -615 124
-53 243 -104 265 -115 98 -45 177 -80 180 -80 2 0 51 -22 110 -50 59 -27 108
-50 110 -50 1 0 69 -32 151 -71 683 -323 1220 -636 1564 -910 126 -100 310
-279 310 -300 0 -13 -291 -400 -483 -644 -26 -33 -47 -68 -47 -78 0 -9 53 -72
118 -140 65 -67 138 -144 163 -170 62 -68 70 -71 120 -46 52 28 116 30 153 6
32 -21 71 -103 81 -170 14 -89 -29 -152 -123 -183 -84 -27 -332 -7 -452 35
-14 5 -37 12 -51 15 -29 6 -77 55 -323 326 -23 25 -107 117 -187 205 -80 88
-151 170 -157 182 -9 16 -12 187 -12 620 0 453 -3 602 -12 611 -9 9 -147 12
-562 12 l-549 0 -56 58 c-31 31 -101 106 -156 166 l-100 109 -85 -7 c-79 -6
-118 -12 -335 -52 -419 -77 -805 -193 -1013 -306 -222 -119 -320 -236 -341
-407 -19 -147 28 -467 120 -821 23 -89 29 -124 21 -132 -16 -16 -228 -24 -245
-9 -8 6 -30 44 -50 83 -75 153 -186 243 -443 361 -55 25 -126 57 -159 73 -173
79 -762 318 -1025 416 -30 12 -69 27 -87 34 -17 8 -36 14 -41 14 -6 0 -20 26
-32 58 -32 89 -51 121 -101 172 -56 56 -110 79 -349 151 -260 77 -342 78 -465
3 l-60 -36 -107 32 c-59 17 -140 42 -180 54 -162 52 -282 87 -458 134 -102 28
-196 53 -210 57 -14 3 -86 22 -160 41 -142 38 -171 45 -365 88 -66 14 -136 31
-155 36 -19 5 -62 15 -95 21 -33 6 -105 20 -160 30 -112 22 -134 26 -360 62
-491 78 -651 92 -1105 92 -473 0 -473 0 -892 -100 -487 -116 -960 -344 -1338
-646 -343 -273 -604 -572 -882 -1009 -59 -94 -154 -269 -222 -411 -36 -75 -72
-142 -81 -149 -11 -9 -90 -15 -283 -21 -241 -7 -543 -18 -1357 -49 -148 -6
-412 -15 -585 -20 -173 -5 -427 -14 -565 -20 -137 -5 -401 -15 -585 -20 -184
-6 -347 -13 -362 -16 -26 -5 -266 39 -393 72 -33 8 -85 22 -115 30 -699 179
-1280 408 -1810 713 -91 52 -196 111 -235 132 -132 69 -228 75 -317 18 -57
-37 -51 -40 -148 76 -174 210 -410 561 -410 610 0 8 20 14 60 17 49 4 66 10
91 34 115 108 235 436 290 793 17 106 20 165 16 275 -5 157 -20 216 -66 260
-30 28 -69 36 -381 71 -80 9 -201 22 -270 30 -69 8 -188 21 -265 30 -77 8
-180 20 -230 26 -49 5 -151 16 -225 24 -74 8 -193 21 -265 30 -71 8 -191 22
-265 29 -178 19 -309 34 -455 51 -66 8 -185 21 -265 30 -80 8 -201 22 -270 30
-69 8 -192 21 -275 30 -174 18 -371 40 -500 55 -49 6 -153 17 -229 25 -77 8
-153 17 -170 20 -17 3 -76 10 -131 15 -55 5 -158 16 -230 25 -120 14 -223 25
-495 55 -58 6 -157 17 -220 25 -398 48 -416 49 -483 31 -87 -24 -147 -70 -184
-142 l-30 -59 -94 1 c-52 0 -166 6 -254 12 -209 16 -394 29 -695 47 -135 9
-251 17 -258 20 -18 7 -182 8 -188 2 -5 -5 41 -84 316 -532 210 -342 260 -429
257 -440 -2 -5 -37 -18 -78 -27 -267 -63 -350 -86 -481 -133 -189 -69 -318
-136 -443 -230 l-100 -75 -256 0 c-185 0 -258 -3 -267 -12 -9 -9 -12 -80 -12
-258 l0 -246 58 -100 c76 -129 182 -316 217 -379 62 -113 65 -116 144 -152 42
-18 85 -38 96 -43 132 -60 176 -80 179 -80 2 0 37 -15 78 -34 125 -58 410
-186 413 -186 2 0 62 -26 132 -59 209 -95 222 -101 227 -101 3 0 38 -15 78
-34 110 -52 319 -146 323 -146 1 0 41 -17 87 -39 45 -21 117 -53 158 -71 41
-18 107 -47 145 -65 39 -18 104 -47 145 -65 41 -18 109 -48 150 -67 41 -19
102 -46 135 -60 102 -42 185 -85 185 -96 0 -24 -97 -190 -115 -197 -19 -7 -74
-13 -430 -45 -93 -9 -213 -21 -265 -26 -112 -12 -330 -33 -562 -54 -91 -8
-184 -17 -205 -20 -21 -3 -94 -10 -163 -15 -69 -6 -188 -17 -265 -24 -77 -8
-201 -20 -275 -26 -192 -16 -180 -7 -180 -138 l0 -108 204 -147 c112 -80 211
-154 220 -162 14 -14 16 -49 16 -240 0 -190 2 -226 16 -239 12 -13 40 -16 139
-16 148 0 130 -12 270 180 185 253 209 285 219 292 19 13 504 10 512 -4 4 -6
-11 -27 -37 -51 -24 -21 -62 -56 -84 -76 -22 -20 -78 -70 -125 -111 -47 -41
-94 -83 -105 -93 -11 -10 -64 -58 -119 -105 -406 -357 -506 -441 -553 -466
-27 -13 -69 -16 -270 -16 -131 0 -243 -4 -249 -8 -6 -4 -57 -115 -113 -247
-115 -269 -129 -301 -141 -330 -5 -11 -54 -128 -110 -260 -103 -244 -124 -294
-140 -330 -5 -11 -61 -144 -125 -295 -64 -151 -120 -284 -125 -295 -41 -92
-90 -217 -90 -231 0 -13 7 -15 38 -11 41 5 405 98 465 119 44 15 46 17 128
198 34 74 77 169 96 210 20 41 50 107 68 146 38 84 39 84 206 84 l108 0 198
167 c321 270 382 322 494 418 58 49 202 171 319 270 118 99 278 234 355 300
78 66 164 139 191 162 291 245 499 421 649 549 235 200 603 510 838 708 168
140 192 157 215 151 15 -4 47 -10 72 -15 25 -4 214 -41 420 -83 206 -41 386
-77 400 -80 14 -3 81 -16 150 -30 69 -14 136 -27 150 -30 14 -2 228 -45 475
-95 248 -49 461 -92 475 -95 14 -3 106 -22 205 -42 99 -21 200 -41 225 -46 25
-4 106 -21 180 -37 l136 -28 86 -66 c115 -88 245 -167 403 -247 264 -134 426
-200 780 -319 200 -67 331 -107 710 -216 50 -14 113 -33 140 -41 53 -16 323
-95 390 -115 22 -6 60 -18 85 -25 25 -7 95 -28 155 -45 61 -17 130 -38 155
-45 25 -7 74 -22 110 -32 42 -12 66 -24 68 -35 2 -11 -52 -59 -165 -147 -92
-73 -181 -142 -198 -155 -71 -56 -296 -232 -365 -285 -41 -32 -82 -60 -91 -63
-9 -4 -45 0 -80 7 -117 25 -353 73 -464 95 -60 11 -141 27 -180 36 -93 19
-302 61 -395 79 -41 8 -109 22 -150 31 -272 57 -383 75 -395 63 -11 -11 -4
-26 152 -304 198 -353 223 -399 223 -401 0 -1 20 -37 45 -78 25 -42 45 -78 45
-81 0 -2 15 -30 34 -62 18 -32 44 -78 58 -103 67 -121 90 -158 106 -172 13
-11 809 -487 1079 -644 37 -22 189 -113 393 -234 80 -48 201 -120 270 -160 69
-40 148 -87 176 -105 27 -18 68 -42 90 -54 21 -12 46 -26 54 -31 35 -22 250
-149 303 -179 79 -45 76 -58 -43 -142 -110 -78 -187 -134 -357 -256 -221 -159
-294 -208 -311 -206 -9 1 -48 37 -86 80 -112 127 -401 409 -546 534 -451 388
-960 704 -1500 932 -238 101 -287 118 -655 237 -119 38 -504 124 -695 154
-260 42 -672 76 -915 76 -256 0 -694 -38 -980 -84 -316 -52 -724 -162 -1045
-281 -1148 -428 -2132 -1213 -2819 -2249 -361 -542 -655 -1224 -797 -1846 -67
-292 -102 -513 -136 -855 -17 -173 -17 -787 0 -960 29 -296 54 -464 106 -720
56 -277 216 -801 296 -970 5 -11 28 -65 51 -120 97 -233 295 -608 419 -795 20
-30 54 -82 76 -115 101 -153 328 -457 399 -531 5 -6 32 -38 60 -70 170 -201
483 -504 700 -678 33 -26 69 -56 80 -65 87 -70 125 -99 235 -177 290 -206 611
-392 940 -543 212 -98 512 -213 695 -267 332 -97 631 -165 860 -195 39 -5 95
-13 125 -19 204 -35 919 -48 1230 -22 241 20 568 71 785 121 113 27 295 74
330 86 22 7 74 23 115 35 102 30 361 123 445 160 11 5 70 29 131 55 235 97
588 288 865 468 507 328 1047 825 1392 1282 34 44 64 82 67 85 24 18 264 376
352 525 99 169 288 527 288 548 0 3 13 34 30 69 54 117 121 289 200 518 85
245 174 618 225 945 10 61 23 115 29 122 6 7 81 35 166 63 85 28 263 86 395
129 453 149 587 191 610 191 27 0 7 47 235 -564 132 -352 177 -483 170 -495
-5 -10 -69 -41 -142 -70 -73 -28 -186 -72 -250 -98 l-116 -46 -114 -156 c-62
-86 -122 -169 -134 -186 -11 -16 -69 -97 -129 -180 -60 -82 -129 -179 -155
-215 -26 -36 -84 -117 -130 -180 -254 -350 -291 -404 -286 -416 5 -12 1094
-14 6945 -14 4841 0 6942 3 6946 11 7 10 15 228 35 854 5 176 14 415 20 530 5
116 15 311 20 435 16 366 29 606 40 750 6 74 15 200 20 280 42 646 96 976 220
1350 48 144 186 449 203 450 13 0 7 -41 -17 -113 -54 -159 -114 -371 -146
-512 -11 -49 -25 -108 -30 -130 -5 -22 -18 -92 -29 -155 -70 -422 -75 -488
-76 -955 0 -278 4 -447 13 -525 29 -247 65 -480 92 -595 5 -22 19 -80 30 -130
159 -710 517 -1471 964 -2049 34 -43 70 -90 80 -105 54 -72 258 -301 377 -422
134 -137 222 -220 333 -314 33 -27 64 -55 70 -61 40 -39 344 -264 451 -335
187 -123 243 -159 248 -159 3 0 52 -28 109 -61 127 -76 421 -221 555 -275 21
-8 47 -19 58 -23 11 -5 45 -19 75 -31 30 -11 64 -25 75 -30 22 -11 302 -102
380 -125 28 -8 73 -21 100 -30 28 -8 104 -28 170 -44 106 -26 173 -40 405 -81
187 -34 630 -70 865 -70 225 0 702 38 870 70 28 6 102 19 165 31 119 21 333
73 455 109 39 12 86 25 105 30 46 12 299 98 325 110 11 5 45 19 75 30 30 11
64 25 75 30 11 5 65 28 120 51 133 57 371 175 468 233 43 25 81 46 83 46 7 0
207 125 309 194 50 33 164 116 255 185 867 655 1530 1580 1873 2611 43 128 70
217 87 285 4 17 19 73 33 125 54 201 98 455 139 795 18 153 18 887 -1 1050
-37 328 -100 681 -157 880 -127 445 -217 681 -396 1039 -193 388 -461 790
-746 1121 -129 150 -472 489 -612 606 -344 287 -662 498 -1045 694 -154 79
-233 115 -487 223 -21 9 -38 19 -38 23 0 16 45 54 219 185 102 77 191 144 199
149 21 17 5 39 -46 62 -347 160 -589 257 -912 363 -311 103 -449 140 -750 199
-354 70 -705 71 -1085 5 -99 -18 -317 -69 -380 -89 -22 -7 -92 -30 -155 -50
-63 -20 -119 -41 -125 -46 -12 -12 -78 -12 -70 1 9 15 272 186 428 278 323
193 575 321 932 477 25 10 153 61 305 120 31 12 141 51 255 90 22 7 94 30 160
49 66 20 134 40 150 45 63 20 512 127 660 157 44 9 105 22 135 29 30 7 75 16
100 20 58 8 219 43 395 85 404 96 670 265 720 455 20 76 19 103 -4 216 -67
325 -319 767 -839 1469 -80 107 -168 224 -197 260 -28 36 -114 144 -190 240
-116 145 -244 302 -414 506 -280 337 -880 1029 -1139 1314 -169 185 -493 504
-747 735 -229 208 -741 637 -952 798 -34 26 -78 62 -97 81 -36 33 -36 34 -36
117 0 46 -7 134 -15 194 -73 547 -325 989 -727 1271 -69 49 -81 52 -104 27z
m2551 -5492 c59 -12 263 -58 400 -90 348 -82 560 -114 850 -131 310 -18 427
-43 604 -128 337 -162 610 -495 732 -893 28 -92 32 -119 33 -234 1 -106 -2
-136 -16 -161 -70 -127 -224 -195 -478 -209 -196 -11 -649 28 -795 68 -319 88
-668 373 -1026 837 -204 265 -397 608 -443 788 -20 79 -20 95 -1 132 14 26 21
30 58 30 23 -1 60 -5 82 -9z m-20177 -2287 c75 -21 157 -43 182 -50 25 -8 68
-20 95 -28 81 -22 127 -44 119 -57 -3 -6 -30 -21 -58 -34 -28 -12 -82 -37
-121 -55 -38 -18 -110 -50 -160 -72 -49 -22 -128 -57 -175 -78 -47 -21 -120
-54 -163 -74 -43 -20 -80 -36 -82 -36 -2 0 -47 -20 -100 -45 -54 -25 -123 -56
-154 -69 -31 -14 -90 -40 -131 -59 -41 -19 -109 -49 -150 -67 -41 -18 -102
-45 -135 -60 -33 -15 -109 -50 -170 -78 -60 -27 -137 -62 -170 -77 -33 -14
-69 -30 -80 -35 -11 -5 -55 -25 -98 -44 -75 -35 -117 -45 -117 -28 0 5 46 42
103 83 56 40 166 121 244 179 79 58 201 148 273 200 72 52 201 147 288 211
209 154 445 327 507 372 33 24 61 36 83 37 17 0 94 -16 170 -36z m14257 -104
c299 -29 656 -85 825 -129 178 -47 247 -80 273 -132 17 -35 17 -39 1 -78 -28
-71 -98 -121 -539 -384 -11 -7 -50 -31 -87 -54 -37 -24 -69 -43 -72 -43 -3 0
-115 -64 -248 -143 -206 -121 -327 -191 -568 -324 -54 -30 -355 -194 -445
-243 -209 -113 -845 -428 -961 -476 -34 -14 -127 -56 -189 -84 -11 -5 -92 -38
-180 -73 -493 -197 -779 -257 -1089 -229 -264 24 -560 112 -861 257 -128 62
-151 85 -141 138 11 61 21 67 511 297 175 82 256 120 390 185 77 37 185 89
240 115 55 26 147 70 205 98 58 27 143 68 190 90 150 70 298 141 498 238 107
52 196 94 198 94 1 0 78 37 171 81 92 45 209 101 258 124 158 75 287 136 395
187 58 28 146 70 195 93 113 54 266 126 420 200 472 227 425 212 610 195z
m-13391 -403 c51 -53 316 -345 375 -412 24 -27 103 -117 175 -200 306 -349
571 -668 738 -890 98 -131 160 -229 181 -285 35 -97 45 -359 24 -655 -12 -157
-12 -160 -36 -163 -13 -2 -40 3 -60 11 -20 8 -108 45 -196 82 -88 36 -208 86
-267 111 -60 24 -156 64 -215 89 -60 24 -180 74 -268 110 -88 36 -207 86 -265
110 -58 24 -161 67 -230 95 -69 28 -134 55 -145 60 -11 5 -76 32 -145 61 -69
28 -195 80 -280 116 -85 35 -202 84 -260 108 -58 23 -160 66 -227 94 -67 28
-124 51 -127 51 -3 0 -29 11 -58 25 -29 13 -114 49 -188 79 -74 30 -196 80
-270 111 -74 31 -193 80 -265 110 -269 111 -294 122 -316 137 l-24 15 35 19
c37 19 320 153 498 235 147 68 198 92 392 184 113 53 230 108 260 122 30 14
125 58 210 98 406 190 502 235 505 235 3 0 163 75 345 162 51 24 59 22 104
-25z m2256 -179 c228 -77 429 -143 445 -148 93 -25 261 -91 272 -106 10 -14
13 -80 11 -293 -3 -236 -5 -276 -18 -279 -8 -1 -71 46 -140 105 -69 60 -192
166 -273 236 -82 71 -155 127 -163 125 -13 -3 -144 -108 -452 -366 -74 -62
-142 -112 -151 -110 -16 3 -37 32 -167 233 -39 61 -106 163 -148 227 -42 65
-76 125 -76 134 0 9 86 101 191 206 184 183 192 189 222 182 18 -4 219 -69
447 -146z m3650 -1905 c0 -5 -24 -21 -53 -37 -123 -68 -298 -215 -399 -336
-74 -88 -185 -273 -216 -355 -6 -16 -20 -55 -31 -85 -91 -239 -105 -571 -37
-831 112 -431 422 -793 821 -961 203 -86 362 -118 595 -118 123 -1 124 -1 85
-16 -77 -29 -111 -34 -281 -34 -227 0 -380 30 -568 111 -562 244 -904 794
-871 1404 8 146 25 237 72 375 100 295 281 541 532 721 131 94 351 195 351
162z m1510 -227 c74 -24 223 -71 330 -105 107 -35 233 -75 280 -91 47 -15 159
-51 250 -80 91 -28 203 -64 250 -80 47 -15 159 -51 250 -80 91 -28 203 -64
250 -80 77 -26 351 -113 600 -192 52 -17 133 -43 180 -58 47 -16 159 -52 250
-80 91 -29 197 -63 235 -75 158 -52 390 -126 545 -175 91 -28 197 -62 235 -75
39 -13 165 -53 280 -90 116 -37 248 -79 295 -95 212 -69 407 -130 417 -130 19
0 27 -21 12 -31 -8 -5 -472 -9 -1037 -9 l-1024 0 -76 41 c-43 23 -81 45 -87
49 -9 6 -102 59 -315 178 -25 14 -148 83 -275 155 -126 71 -255 143 -285 159
-30 17 -59 34 -65 38 -5 4 -73 42 -150 85 -77 43 -217 122 -311 175 -94 54
-202 115 -240 136 -38 20 -86 48 -106 61 -21 13 -40 23 -44 23 -3 0 -47 24
-97 54 -51 29 -218 125 -372 211 -287 162 -329 188 -318 199 8 8 -12 13 143
-38z m-14278 -446 c15 -30 32 -68 37 -85 6 -16 26 -77 47 -135 20 -58 42 -125
49 -150 7 -25 24 -83 38 -130 62 -212 156 -667 142 -689 -3 -6 -36 -11 -74
-11 -44 0 -72 -5 -79 -13 -6 -7 -12 -53 -14 -103 l-3 -89 -35 -17 c-19 -9 -82
-34 -140 -54 -58 -21 -145 -57 -193 -81 -48 -24 -89 -43 -91 -43 -9 0 -201
-113 -258 -151 -305 -206 -515 -430 -697 -747 -37 -63 -45 -72 -64 -66 -49 14
-393 197 -549 292 -200 121 -279 174 -458 306 -160 119 -240 192 -240 219 0
22 75 151 159 272 358 520 837 939 1386 1213 259 130 461 205 755 281 145 37
155 39 210 37 44 -1 46 -2 72 -56z m1417 40 c187 -43 331 -86 471 -140 30 -12
71 -27 90 -35 80 -30 316 -143 440 -211 187 -103 497 -329 665 -485 119 -111
225 -223 225 -240 0 -9 -42 -46 -94 -82 l-95 -67 -443 -10 c-244 -5 -591 -13
-773 -16 l-330 -7 -24 27 -24 26 -277 0 c-179 0 -280 4 -286 10 -11 11 -11 13
27 225 23 123 97 433 130 540 78 253 157 461 182 477 17 11 19 10 116 -12z
m24157 -252 c29 -33 83 -169 132 -328 48 -155 124 -529 152 -744 9 -72 9 -92
-2 -102 -12 -11 -216 -44 -293 -48 -35 -1 -41 10 -149 269 -37 88 -71 169 -76
180 -18 42 -41 95 -110 260 -39 94 -75 179 -80 190 -5 11 -17 40 -28 65 -10
25 -26 63 -35 85 -9 22 -18 51 -20 64 -3 33 29 44 308 101 172 35 177 36 201
8z m1530 -83 c583 -168 1108 -474 1543 -900 295 -289 521 -591 705 -946 l40
-76 -23 -37 c-42 -67 -310 -255 -606 -423 -127 -72 -364 -192 -407 -207 -21
-6 -40 20 -92 129 -162 337 -444 670 -759 896 -178 127 -312 201 -512 284
-154 63 -199 78 -330 110 -86 21 -105 31 -105 53 0 19 46 213 60 252 5 14 18
59 30 100 59 201 201 586 255 689 24 47 75 101 95 101 10 0 58 -11 106 -25z
m-2754 -505 c36 -85 71 -166 76 -180 14 -33 211 -500 222 -525 56 -126 98
-238 94 -250 -4 -8 -40 -39 -83 -68 -90 -64 -189 -142 -248 -198 -23 -21 -51
-39 -63 -39 -11 0 -145 93 -298 208 -346 259 -337 253 -356 246 -8 -3 -41 -38
-73 -77 -32 -40 -65 -79 -73 -89 -8 -9 -80 -98 -160 -197 -80 -98 -151 -182
-159 -185 -17 -8 -54 20 -158 118 -90 85 -118 128 -101 161 21 39 132 201 197
285 277 360 612 660 1026 918 79 49 81 48 157 -128z m-17067 -63 c83 -62 192
-143 244 -181 66 -48 90 -71 80 -76 -8 -4 -275 -13 -594 -19 -319 -6 -596 -14
-616 -16 -21 -3 -51 -2 -67 1 l-31 6 29 24 c15 13 30 24 33 24 3 0 67 30 144
66 76 37 183 88 238 114 55 26 156 75 225 108 69 34 134 61 145 61 11 1 88
-50 170 -112z m690 -599 c0 -15 -174 -235 -474 -597 -57 -70 -114 -132 -126
-138 -13 -7 -63 -19 -112 -28 -48 -8 -127 -21 -175 -30 -49 -8 -125 -22 -170
-29 -88 -15 -271 -48 -403 -72 -179 -32 -236 -38 -245 -25 -4 7 -17 54 -29
104 -49 200 -139 496 -201 657 -44 114 -43 111 -29 125 11 11 139 16 609 26
327 6 723 15 880 19 421 10 475 9 475 -12z m-5365 -112 c0 -7 -24 -29 -52 -50
-29 -21 -123 -87 -208 -148 -85 -61 -177 -127 -205 -146 -27 -19 -64 -46 -81
-59 -33 -24 -73 -30 -91 -12 -7 7 -29 4 -74 -11 -116 -39 -162 -8 -157 108 4
93 -27 114 -96 67 -42 -28 -68 -32 -86 -10 -18 22 -10 243 10 255 8 5 107 10
220 11 113 1 338 5 500 8 162 3 301 4 308 2 6 -2 12 -9 12 -15z m11990 -136
c0 -5 -4 -10 -10 -10 -5 0 -10 5 -10 10 0 6 5 10 10 10 6 0 10 -4 10 -10z
m-30 -26 c0 -4 -19 -39 -43 -78 -65 -107 -103 -211 -123 -336 -17 -105 -17
-115 0 -220 26 -167 95 -318 197 -435 46 -52 170 -150 228 -179 138 -70 301
-102 462 -91 64 5 99 3 103 -4 4 -6 -9 -13 -31 -16 -21 -4 -55 -13 -76 -21
-60 -22 -260 -19 -360 7 -336 85 -568 349 -618 701 -30 217 59 493 207 641 35
34 54 46 54 31z m-16605 -1323 c146 -17 243 -32 473 -71 66 -11 67 -15 51
-132 -21 -156 -19 -690 4 -823 59 -340 154 -596 311 -835 61 -93 179 -242 197
-248 5 -2 9 -14 9 -26 0 -38 -287 -313 -531 -508 -117 -93 -333 -248 -413
-295 -164 -96 -302 -92 -425 13 -125 108 -418 574 -551 879 -12 28 -28 64 -35
80 -34 76 -75 187 -75 204 0 13 26 29 98 61 104 47 152 75 152 91 0 15 -71
159 -79 159 -3 0 -55 -21 -115 -47 -78 -34 -112 -44 -123 -37 -27 17 -95 312
-134 579 -19 126 -23 196 -23 435 l-1 285 33 67 c56 115 150 173 302 189 142
14 690 2 875 -20z m9177 -133 c8 -7 27 -47 41 -88 14 -41 36 -100 47 -130 111
-287 117 -308 99 -324 -7 -7 -135 -53 -284 -101 -148 -48 -369 -120 -490 -159
-121 -40 -227 -71 -235 -69 -13 4 -15 53 -14 375 1 335 2 371 17 380 16 8 61
16 302 53 95 14 258 39 390 60 108 17 109 17 127 3z m15806 -7 c155 -8 167
-13 156 -63 -11 -56 -76 -244 -91 -268 -9 -14 -62 -79 -118 -145 -56 -67 -107
-130 -113 -142 -13 -24 -21 13 139 -678 17 -71 34 -137 38 -145 13 -23 48 -21
521 26 172 17 219 16 231 -6 5 -8 25 -58 45 -110 105 -274 248 -513 442 -738
43 -51 69 -88 65 -97 -18 -48 -414 -341 -698 -517 -201 -124 -267 -144 -311
-92 -399 474 -696 1121 -792 1724 -44 275 -47 312 -47 620 0 245 4 333 19 448
20 142 20 144 50 160 51 27 229 36 464 23z m-22344 -205 c91 -28 149 -95 162
-189 17 -126 -92 -247 -222 -247 -59 0 -103 19 -147 65 -62 63 -81 151 -52
236 31 87 84 126 206 148 3 1 27 -5 53 -13z m28866 -122 c200 -19 276 -40 286
-80 10 -40 -2 -562 -15 -649 -66 -431 -133 -688 -263 -995 -42 -99 -150 -319
-186 -380 -11 -19 -30 -53 -42 -75 -40 -74 -211 -319 -293 -420 -133 -163
-289 -331 -318 -340 -68 -22 -504 318 -806 627 -132 136 -137 146 -84 191 43
36 184 189 244 265 217 272 387 623 466 962 54 234 65 364 58 652 -4 159 -2
220 6 225 50 32 667 43 947 17z m-25205 -80 c11 -12 14 -28 11 -58 -3 -22 -8
-90 -11 -151 -12 -222 -75 -563 -152 -810 -32 -103 -77 -221 -91 -238 -9 -9
-106 -46 -221 -83 -113 -37 -264 -86 -336 -109 -116 -38 -194 -63 -505 -160
-47 -15 -123 -37 -170 -51 -47 -13 -98 -28 -115 -33 -100 -32 -230 -62 -248
-57 -12 3 -53 36 -90 74 l-69 69 17 33 c17 32 16 36 -3 84 -41 102 -36 135 22
163 29 13 43 14 90 5 98 -20 111 2 61 100 -28 53 -35 76 -30 99 10 44 49 69
109 69 98 0 119 42 65 129 -57 94 -28 165 72 178 46 6 79 27 79 50 0 7 -16 31
-36 53 -41 45 -54 90 -42 138 7 28 18 38 62 58 30 14 59 31 66 39 20 24 3 60
-39 88 -46 31 -63 57 -51 77 5 8 54 21 127 32 65 10 156 25 203 32 47 8 130
21 185 30 223 36 294 47 380 61 50 8 131 21 180 29 50 8 117 19 150 24 33 6
107 18 165 27 58 9 112 18 120 20 8 1 18 3 22 4 4 0 14 -6 23 -15z m21884 -84
c155 -78 172 -291 31 -384 -92 -61 -195 -52 -271 24 -54 54 -77 125 -65 204
20 132 186 217 305 156z m-22329 -1611 c0 -50 -284 -464 -437 -636 -70 -79
-88 -86 -146 -57 -109 56 -467 317 -488 356 -11 21 1 37 28 38 11 0 365 106
568 170 307 97 409 130 413 135 10 10 62 5 62 -6z m-4183 -317 c258 -126 573
-206 968 -248 261 -27 840 -11 1111 32 157 24 149 27 193 -68 116 -251 287
-757 291 -859 3 -81 6 -77 -95 -125 -286 -134 -624 -230 -1030 -291 -174 -26
-758 -26 -925 0 -226 35 -525 100 -594 127 -12 5 -55 19 -96 31 -41 12 -82 26
-90 30 -8 4 -35 15 -60 24 -25 9 -87 35 -137 57 l-93 40 0 42 c0 81 78 355
174 612 38 103 87 223 116 289 5 11 21 47 35 80 83 186 126 265 146 265 5 0
43 -17 86 -38z m25337 -446 c247 -122 480 -194 751 -233 231 -33 621 -20 820
26 251 59 310 78 474 147 57 25 112 42 121 39 26 -8 159 -361 228 -605 44
-155 91 -351 102 -429 18 -121 33 -109 -265 -212 -100 -35 -366 -102 -475
-120 -230 -38 -619 -66 -665 -49 -25 9 -25 12 -25 124 0 143 -2 146 -105 146
-92 0 -95 -4 -95 -139 0 -105 -12 -138 -49 -127 -9 3 -62 10 -119 16 -389 39
-831 166 -1191 343 -57 29 -86 49 -92 66 -30 77 118 481 329 904 68 136 87
167 104 167 12 0 80 -29 152 -64z" />
    </g>
</svg>