<svg width="24" height="24" viewBox="0 0 24 24" fill="none" xmlns="http://www.w3.org/2000/svg">
<path d="M16.2857 8.36364C16.2857 10.874 14.3669 12.9091 12 12.9091V14.7273C15.3137 14.7273 18 11.8782 18 8.36364H16.2857ZM12 12.9091C9.63307 12.9091 7.71429 10.874 7.71429 8.36364H6C6 11.8782 8.68629 14.7273 12 14.7273V12.9091ZM7.71429 8.36364C7.71429 5.85325 9.63307 3.81818 12 3.81818V2C8.68629 2 6 4.8491 6 8.36364H7.71429ZM12 3.81818C14.3669 3.81818 16.2857 5.85325 16.2857 8.36364H18C18 4.8491 15.3137 2 12 2V3.81818Z" fill="#005103"/>
<path d="M12.8571 13.8182C12.8571 13.3161 12.4734 12.9091 12 12.9091C11.5266 12.9091 11.1428 13.3161 11.1428 13.8182H12.8571ZM11.1428 21.0909C11.1428 21.593 11.5266 22 12 22C12.4734 22 12.8571 21.593 12.8571 21.0909H11.1428ZM11.1428 13.8182V21.0909H12.8571V13.8182H11.1428Z" fill="#005103"/>
<path d="M9.42868 16.5455C8.95529 16.5455 8.57153 16.9525 8.57153 17.4546C8.57153 17.9566 8.95529 18.3637 9.42868 18.3637V16.5455ZM14.5715 18.3637C15.0449 18.3637 15.4287 17.9566 15.4287 17.4546C15.4287 16.9525 15.0449 16.5455 14.5715 16.5455V18.3637ZM9.42868 18.3637H14.5715V16.5455H9.42868V18.3637Z" fill="#005103"/>
</svg>
