<svg width="26" height="33" viewBox="0 0 26 33" fill="none" xmlns="http://www.w3.org/2000/svg">
<path d="M16.0377 20.4L11.9457 16.4L13.0454 15.325L16.0377 18.25L22.1503 12.275L23.25 13.35L16.0377 20.4ZM21.6643 10.05H20.1298V4.875H18.5953V7.125H6.31905V4.875H4.78453V19.875H11.204V21.375H4.78453C4.34122 21.375 3.97464 21.2333 3.68478 20.95C3.39493 20.6667 3.25 20.3083 3.25 19.875V4.875C3.25 4.44167 3.39493 4.08333 3.68478 3.8C3.97464 3.51667 4.34122 3.375 4.78453 3.375H9.95077C10.0701 2.79167 10.3642 2.3125 10.8331 1.9375C11.302 1.5625 11.8434 1.375 12.4572 1.375C13.071 1.375 13.6123 1.5625 14.0812 1.9375C14.5501 2.3125 14.8442 2.79167 14.9636 3.375H20.1298C20.5731 3.375 20.9397 3.51667 21.2295 3.8C21.5194 4.08333 21.6643 4.44167 21.6643 4.875V10.05ZM12.4572 4.875C12.747 4.875 12.99 4.77917 13.1861 4.5875C13.3821 4.39583 13.4802 4.15833 13.4802 3.875C13.4802 3.59167 13.3821 3.35417 13.1861 3.1625C12.99 2.97083 12.747 2.875 12.4572 2.875C12.1673 2.875 11.9243 2.97083 11.7283 3.1625C11.5322 3.35417 11.4341 3.59167 11.4341 3.875C11.4341 4.15833 11.5322 4.39583 11.7283 4.5875C11.9243 4.77917 12.1673 4.875 12.4572 4.875Z" fill="black"/>
</svg>
